<?xml version="1.0" encoding="utf-8"?>
<!-- Generator: Adobe Illustrator 20.1.0, SVG Export Plug-In . SVG Version: 6.00 Build 0)  -->
<svg version="1.1" id="Layer_2" xmlns="http://www.w3.org/2000/svg" xmlns:xlink="http://www.w3.org/1999/xlink" x="0px" y="0px"
	 viewBox="0 0 623.3 310.3" style="enable-background:new 0 0 623.3 310.3;" xml:space="preserve">
<style type="text/css">
	.st0{fill:#F39200;}
	.st1{fill:#818B91;}
	.st2{fill:#F7D500;}
	.st3{fill:#2A91D0;}
	.st4{fill:#D96899;}
	.st5{fill:#FFFFFF;}
</style>
<polygon class="st0" points="414.1,226.5 414.1,168.4 436.7,159.3 436.7,234.5 "/>
<path class="st1" d="M205.1,209.5c0,3.2-0.6,5.8-1.9,8c-1.3,2.2-2.9,3.9-5,5.2c-2.1,1.3-4.4,2.2-7.1,2.8c-2.6,0.6-5.4,0.9-8.1,0.9
	h-23.1v-57.9H183c2.2,0,4.5,0.2,6.9,0.7c2.3,0.5,4.5,1.3,6.4,2.4c1.9,1.1,3.5,2.6,4.7,4.5c1.2,1.9,1.8,4.3,1.8,7.3
	c0,3.2-0.9,5.9-2.6,8c-1.7,2.1-4,3.6-6.9,4.5v0.2c1.6,0.3,3.2,0.8,4.6,1.5c1.4,0.7,2.7,1.7,3.8,2.8c1.1,1.1,1.9,2.5,2.5,4
	C204.8,205.9,205.1,207.6,205.1,209.5z M189.2,185.2c0-2-0.8-3.4-2.3-4.3c-1.5-0.9-3.7-1.3-6.7-1.3h-6.9v11.9h7.5
	c2.6,0,4.7-0.5,6.1-1.6C188.5,188.8,189.2,187.3,189.2,185.2z M191.1,208.2c0-2.4-0.9-4.1-2.7-5c-1.8-0.9-4.2-1.4-7.2-1.4h-7.8v13.3
	h7.9c1.1,0,2.2-0.1,3.4-0.3c1.2-0.2,2.2-0.5,3.2-1c1-0.5,1.7-1.2,2.3-2.1C190.8,210.8,191.1,209.6,191.1,208.2z"/>
<path class="st1" d="M274.8,197.1c0,4.6-0.8,8.8-2.4,12.6c-1.6,3.8-3.8,7-6.6,9.7c-2.8,2.7-6.2,4.8-10,6.3
	c-3.9,1.5-8.1,2.2-12.6,2.2c-4.5,0-8.7-0.7-12.6-2.2c-3.8-1.5-7.2-3.6-10-6.3c-2.8-2.7-5-5.9-6.6-9.7c-1.6-3.8-2.4-8-2.4-12.6
	c0-4.6,0.8-8.8,2.4-12.6c1.6-3.7,3.8-6.9,6.6-9.5c2.8-2.6,6.1-4.6,10-6.1c3.8-1.4,8-2.1,12.6-2.1c4.5,0,8.7,0.7,12.6,2.1
	c3.9,1.4,7.2,3.4,10,6.1c2.8,2.6,5,5.8,6.6,9.5C274,188.3,274.8,192.5,274.8,197.1z M259.8,197.1c0-2.5-0.4-4.9-1.2-7
	c-0.8-2.2-2-4.1-3.4-5.6c-1.4-1.6-3.2-2.8-5.2-3.7c-2-0.9-4.3-1.3-6.8-1.3c-2.5,0-4.7,0.4-6.7,1.3c-2,0.9-3.8,2.1-5.2,3.7
	c-1.5,1.6-2.6,3.4-3.4,5.6c-0.8,2.2-1.2,4.5-1.2,7c0,2.6,0.4,5,1.2,7.2c0.8,2.2,2,4.1,3.4,5.7c1.4,1.6,3.2,2.8,5.2,3.7
	c2,0.9,4.3,1.4,6.7,1.4c2.5,0,4.7-0.5,6.7-1.4c2-0.9,3.8-2.1,5.2-3.7c1.5-1.6,2.6-3.5,3.4-5.7C259.4,202.2,259.8,199.8,259.8,197.1z
	"/>
<path class="st1" d="M344.4,197.1c0,4.6-0.8,8.8-2.4,12.6c-1.6,3.8-3.8,7-6.6,9.7c-2.8,2.7-6.2,4.8-10,6.3
	c-3.9,1.5-8.1,2.2-12.6,2.2c-4.5,0-8.7-0.7-12.6-2.2c-3.8-1.5-7.2-3.6-10-6.3c-2.8-2.7-5-5.9-6.6-9.7c-1.6-3.8-2.4-8-2.4-12.6
	c0-4.6,0.8-8.8,2.4-12.6c1.6-3.7,3.8-6.9,6.6-9.5c2.8-2.6,6.1-4.6,10-6.1c3.8-1.4,8-2.1,12.6-2.1c4.5,0,8.7,0.7,12.6,2.1
	c3.9,1.4,7.2,3.4,10,6.1c2.8,2.6,5,5.8,6.6,9.5C343.6,188.3,344.4,192.5,344.4,197.1z M329.4,197.1c0-2.5-0.4-4.9-1.2-7
	c-0.8-2.2-2-4.1-3.4-5.6c-1.4-1.6-3.2-2.8-5.2-3.7c-2-0.9-4.3-1.3-6.8-1.3c-2.5,0-4.7,0.4-6.7,1.3c-2,0.9-3.8,2.1-5.2,3.7
	c-1.5,1.6-2.6,3.4-3.4,5.6c-0.8,2.2-1.2,4.5-1.2,7c0,2.6,0.4,5,1.2,7.2c0.8,2.2,2,4.1,3.4,5.7c1.4,1.6,3.2,2.8,5.2,3.7
	c2,0.9,4.3,1.4,6.7,1.4c2.5,0,4.7-0.5,6.7-1.4c2-0.9,3.8-2.1,5.2-3.7c1.5-1.6,2.6-3.5,3.4-5.7C329,202.2,329.4,199.8,329.4,197.1z"
	/>
<path class="st1" d="M389,226.4l-21.5-26.7h-0.2v26.7h-13.7v-57.9h13.7V192h0.2l20.7-23.6h17.5l-25,26.7l26.4,31.3H389z"/>
<path class="st1" d="M482.5,226.4l-23.3-37.9h-0.2l0.3,37.9h-13.6v-57.9h16l23.2,37.8h0.2l-0.3-37.8h13.6v57.9H482.5z"/>
<path class="st1" d="M551.8,226.4c-3.8,0.9-7.9,1.4-12.4,1.4c-4.6,0-8.9-0.7-12.8-2.2c-3.9-1.5-7.3-3.5-10.1-6.2
	c-2.8-2.7-5-5.9-6.6-9.6c-1.6-3.7-2.4-7.9-2.4-12.5c0-4.6,0.8-8.8,2.4-12.6c1.6-3.8,3.8-7,6.7-9.6c2.8-2.6,6.2-4.7,10-6.1
	c3.8-1.4,7.9-2.1,12.4-2.1c4.6,0,8.8,0.7,12.8,2.1c3.9,1.4,7.1,3.3,9.6,5.6l-8.8,10.1c-1.4-1.6-3.2-2.9-5.4-3.9
	c-2.2-1-4.8-1.5-7.6-1.5c-2.5,0-4.7,0.4-6.8,1.3c-2.1,0.9-3.9,2.2-5.4,3.8c-1.5,1.6-2.7,3.5-3.6,5.7c-0.8,2.2-1.3,4.6-1.3,7.2
	c0,2.7,0.4,5.1,1.1,7.4c0.8,2.2,1.9,4.2,3.4,5.8c1.5,1.6,3.4,2.9,5.6,3.8c2.2,0.9,4.7,1.4,7.6,1.4c1.6,0,3.2-0.1,4.7-0.4
	c1.5-0.2,2.8-0.6,4.1-1.2v-10.6h-11v-11.3h23.9v30.7C558.9,224.3,555.6,225.5,551.8,226.4z"/>
<path class="st1" d="M603.8,183.5c-1.2-1.5-2.8-2.7-4.7-3.6c-1.9-0.9-3.8-1.4-5.6-1.4c-0.9,0-1.9,0.1-2.8,0.2
	c-1,0.2-1.8,0.5-2.6,0.9c-0.8,0.5-1.4,1.1-1.9,1.8c-0.5,0.7-0.8,1.7-0.8,2.8c0,1,0.2,1.8,0.6,2.5c0.4,0.7,1,1.2,1.8,1.7
	c0.8,0.5,1.7,0.9,2.8,1.4c1.1,0.4,2.3,0.8,3.7,1.3c2,0.7,4,1.4,6.1,2.2c2.1,0.8,4.1,1.8,5.8,3.1c1.7,1.3,3.2,2.9,4.3,4.9
	c1.1,1.9,1.7,4.4,1.7,7.2c0,3.3-0.6,6.2-1.8,8.6c-1.2,2.4-2.9,4.4-5,6c-2.1,1.6-4.4,2.8-7.1,3.5c-2.7,0.8-5.4,1.1-8.3,1.1
	c-4.1,0-8.2-0.7-12-2.2c-3.9-1.4-7.1-3.5-9.7-6.2l9.2-9.3c1.4,1.7,3.3,3.2,5.6,4.4c2.3,1.2,4.6,1.8,6.9,1.8c1,0,2-0.1,3-0.3
	c1-0.2,1.8-0.6,2.6-1.1c0.7-0.5,1.3-1.1,1.8-2c0.4-0.8,0.7-1.8,0.7-2.9c0-1.1-0.3-2-0.8-2.8c-0.5-0.8-1.3-1.5-2.3-2.1
	c-1-0.6-2.3-1.2-3.8-1.7c-1.5-0.5-3.2-1.1-5.1-1.7c-1.9-0.6-3.7-1.3-5.4-2.1c-1.8-0.8-3.4-1.9-4.7-3.2c-1.4-1.3-2.5-2.8-3.4-4.7
	c-0.8-1.8-1.3-4.1-1.3-6.7c0-3.2,0.7-6,2-8.3c1.3-2.3,3-4.2,5.2-5.6c2.1-1.5,4.5-2.6,7.2-3.2c2.7-0.7,5.4-1,8.1-1
	c3.3,0,6.6,0.6,10,1.8c3.4,1.2,6.4,3,9,5.3L603.8,183.5z"/>
<rect x="11.4" y="96.6" class="st2" width="135.7" height="57.9"/>
<rect x="159.9" y="96.6" class="st3" width="67.1" height="57.9"/>
<polygon class="st0" points="77.9,215.9 77.9,38.7 147.1,10.9 147.1,240.3 "/>
<rect x="77.9" y="96.6" class="st4" width="69.2" height="57.9"/>
<ellipse class="st5" cx="129.6" cy="125" rx="4" ry="7.9"/>
<ellipse class="st5" cx="431" cy="196.7" rx="1.3" ry="2.6"/>
<path class="st1" d="M203.9,258.3c0,3.4-0.6,6.2-1.9,8.6c-1.3,2.3-2.9,4.2-5.1,5.6c-2.1,1.4-4.6,2.5-7.4,3.1c-2.8,0.7-5.7,1-8.7,1
	h-7v21.9h-14v-58h21.3c3.2,0,6.1,0.3,8.9,0.9c2.8,0.6,5.2,1.6,7.2,3c2,1.4,3.7,3.2,4.8,5.5C203.3,252.1,203.9,254.9,203.9,258.3z
	 M189.9,258.3c0-1.4-0.3-2.5-0.8-3.4c-0.5-0.9-1.3-1.6-2.2-2c-0.9-0.5-2-0.8-3.2-1c-1.2-0.2-2.4-0.2-3.6-0.2h-6.1v13.7h5.9
	c1.3,0,2.6-0.1,3.8-0.3c1.2-0.2,2.3-0.6,3.2-1.1c1-0.5,1.7-1.3,2.3-2.2C189.6,260.8,189.9,259.7,189.9,258.3z"/>
<path class="st1" d="M210.7,298.4v-58h14.1v45.8h22.4v12.2H210.7z"/>
<path class="st1" d="M300.3,286.1c-1.2,2.9-2.9,5.3-5,7.4c-2.2,2-4.8,3.6-7.9,4.8c-3.1,1.1-6.5,1.7-10.3,1.7
	c-3.8,0-7.3-0.6-10.3-1.7c-3.1-1.1-5.6-2.7-7.8-4.8c-2.1-2-3.8-4.5-4.9-7.4c-1.1-2.9-1.7-6-1.7-9.5v-36.1h13.9v34.9
	c0,1.6,0.2,3.1,0.6,4.5c0.4,1.4,1,2.7,1.9,3.8c0.8,1.1,2,2,3.4,2.7c1.4,0.7,3.1,1,5,1c2,0,3.6-0.3,5-1c1.4-0.7,2.5-1.5,3.4-2.7
	c0.9-1.1,1.5-2.4,1.9-3.8c0.4-1.4,0.6-2.9,0.6-4.5v-34.9h14v36.1C302.1,280,301.5,283.2,300.3,286.1z"/>
<path class="st1" d="M342.4,255.5c-1.2-1.5-2.8-2.7-4.7-3.6c-1.9-0.9-3.8-1.4-5.6-1.4c-0.9,0-1.9,0.1-2.8,0.2
	c-1,0.2-1.8,0.5-2.6,0.9c-0.8,0.5-1.4,1.1-1.9,1.8c-0.5,0.7-0.8,1.7-0.8,2.8c0,1,0.2,1.8,0.6,2.5c0.4,0.7,1,1.2,1.8,1.7
	c0.8,0.5,1.7,0.9,2.8,1.4c1.1,0.4,2.3,0.8,3.7,1.3c2,0.7,4,1.4,6.1,2.2c2.1,0.8,4.1,1.8,5.8,3.2c1.7,1.3,3.2,2.9,4.3,4.9
	c1.1,1.9,1.7,4.4,1.7,7.2c0,3.3-0.6,6.2-1.8,8.6c-1.2,2.4-2.9,4.4-5,6c-2.1,1.6-4.4,2.8-7.1,3.5c-2.7,0.8-5.4,1.1-8.3,1.1
	c-4.1,0-8.2-0.7-12-2.2c-3.9-1.4-7.1-3.5-9.7-6.2l9.2-9.3c1.4,1.7,3.3,3.2,5.6,4.4c2.3,1.2,4.6,1.8,6.9,1.8c1,0,2-0.1,3-0.3
	c1-0.2,1.8-0.6,2.6-1.1c0.7-0.5,1.3-1.1,1.8-2c0.4-0.8,0.7-1.8,0.7-2.9c0-1.1-0.3-2-0.8-2.8c-0.5-0.8-1.3-1.5-2.3-2.1
	c-1-0.6-2.3-1.2-3.8-1.7c-1.5-0.5-3.2-1.1-5.1-1.7c-1.9-0.6-3.7-1.3-5.4-2.1c-1.8-0.8-3.4-1.9-4.7-3.2c-1.4-1.3-2.5-2.8-3.4-4.7
	c-0.8-1.8-1.3-4.1-1.3-6.7c0-3.2,0.7-6,2-8.3c1.3-2.3,3-4.2,5.2-5.6c2.1-1.5,4.5-2.6,7.2-3.2c2.7-0.7,5.4-1,8.1-1
	c3.3,0,6.6,0.6,10,1.8c3.4,1.2,6.4,3,9,5.3L342.4,255.5z"/>
</svg>
